<svg width="26" height="38" viewBox="0 0 26 38" fill="none" xmlns="http://www.w3.org/2000/svg">
<path fill-rule="evenodd" clip-rule="evenodd" d="M25.8441 0.165836L25.833 0.180419C25.8998 0.224051 25.9369 0.271389 25.9629 0.344185C25.9703 0.36964 25.9146 0.380561 25.9518 0.402423H25.9777L26 3.09931V6.45861V13.7741L25.9777 16.9805V20.6418L25.9629 24.4962L25.9295 27.1348V28.6707L25.8924 35.7896L25.8664 37.5621C25.833 37.6385 25.7328 37.6603 25.6994 37.7149L25.6512 37.7404H21.7916C21.7657 37.7149 21.736 37.7149 21.7099 37.7404L19.0825 37.7259L17.0674 37.7404C17.0043 37.6859 16.9152 37.7805 16.8521 37.7149L16.8039 37.7404L11.8347 37.7259L8.22012 37.7149H4.95432C4.90608 37.6458 4.87268 37.7513 4.8096 37.7149L4.29006 37.6676L0.478726 37.6567C0.334009 37.6349 0.200374 37.5621 0.0816661 37.5039C0.0927698 37.4238 0 37.4493 0 37.3729L0.01115 34.7596L0.0334049 34.7342L0.01115 34.7123L0.0593662 26.4942L0.0927711 20.5618L0.107627 16.5656L0.118777 9.42486L0.129882 0.853711C0.20413 0.493417 0.512131 0.169499 0.879497 0.0857839L1.169 0.060281L5.51842 0.0493841C5.58149 0.12946 5.60375 -0.0197716 5.65201 0.0712003L8.19411 0.0493841C8.22751 0.0894219 8.25352 0.0529778 8.29061 0.0493841L19.4536 0.0384647C19.4499 0.0493841 19.4611 0.0529783 19.4647 0.060281C19.539 0.0129866 19.6429 0.0566416 19.7208 0.0239065C19.8173 0.0311631 19.9583 0.00568349 20.0585 0.0493841L20.1402 0.0239065H22.0588L25.1799 0.0129871L25.191 0.00204526C25.4174 0.00204526 25.6883 -0.0306902 25.8441 0.165836Z" fill="#0C00A0"/>
<path fill-rule="evenodd" clip-rule="evenodd" d="M25.1342 1.06917L25.1238 1.08316C25.1865 1.12504 25.2214 1.17035 25.2459 1.2401C25.2528 1.26452 25.2005 1.27498 25.2354 1.2959H25.2598L25.2807 3.88052V7.09997V14.1108L25.2598 17.1838V20.6927L25.2459 24.3865L25.2144 26.9153V28.3873L25.1796 35.2098L25.1552 36.9085C25.1238 36.9817 25.0296 37.0026 24.9982 37.055L24.9529 37.0794H21.3253C21.3009 37.055 21.273 37.055 21.2486 37.0794L18.779 37.0655L16.8851 37.0794C16.8258 37.0271 16.7421 37.1178 16.6827 37.055L16.6374 37.0794L11.967 37.0655L8.56968 37.055H5.5002C5.45487 36.9887 5.42349 37.0899 5.36417 37.055L4.87589 37.0097L1.29368 36.9992C1.15765 36.9783 1.03205 36.9085 0.920461 36.8527C0.930943 36.776 0.84375 36.8004 0.84375 36.7271L0.85416 34.2227L0.875125 34.1983L0.85416 34.1774L0.899545 26.3014L0.930942 20.616L0.944856 16.7862L0.95534 9.94268L0.965775 1.72844C1.03558 1.38309 1.32508 1.07268 1.67037 0.992462L1.94244 0.96804L6.03042 0.957561C6.08969 1.03432 6.11058 0.891326 6.15597 0.978519L8.54526 0.957561C8.57666 0.995964 8.60108 0.961063 8.63591 0.957561L19.1279 0.947124C19.1244 0.95756 19.1348 0.96106 19.1383 0.96804C19.2081 0.922727 19.3058 0.964539 19.379 0.93314C19.4697 0.940166 19.6022 0.915704 19.6964 0.957561L19.7731 0.93314H21.5765L24.5099 0.922726L24.5203 0.912247C24.7331 0.912247 24.9877 0.880847 25.1342 1.06917Z" fill="#FFED57"/>
<path fill-rule="evenodd" clip-rule="evenodd" d="M22.7211 1.65852H24.2175C24.3256 1.71431 24.4651 1.76665 24.5105 1.8992L24.5349 7.31257L24.5105 20.5147L24.4651 28.1046C24.4198 28.3348 24.5419 28.6836 24.2733 28.8196C24.1338 28.7952 24.0326 28.6731 23.9105 28.6034C23.0909 28.5685 22.5153 27.9267 21.8596 27.5256C21.5701 27.2257 21.3259 26.8873 21.2596 26.4827C20.9492 26.0746 21.1062 25.5165 20.8411 25.091C20.8097 24.634 20.6493 24.2294 20.4993 23.8213C20.5132 23.3889 20.1505 23.1098 20.1365 22.6877C19.9238 22.2866 19.9028 21.8332 19.8889 21.3623C19.6517 20.9647 19.3761 20.6019 19.0518 20.2531C18.982 20.2705 19.0378 20.2217 19.0064 20.1973C18.7797 19.9183 18.5913 19.6078 18.5286 19.2555C18.4344 18.966 18.2356 18.7219 18.1762 18.4184C18.0054 18.1638 17.9356 17.8708 17.7228 17.6336C17.3845 17.0162 17.0775 16.3814 16.8299 15.7187C16.638 15.5583 16.4392 15.3176 16.23 15.1536C15.9997 14.8467 15.6753 14.5781 15.4696 14.2572C15.4905 13.9224 15.2254 13.7061 15.1521 13.4096C15.1103 12.8585 15.1905 12.2307 15.051 11.711C15.0649 11.5366 14.9917 11.4005 14.9359 11.2575C15.0824 10.9053 15.3579 10.6088 15.48 10.2495C15.8009 9.98092 16.1393 9.72982 16.5229 9.56932C16.5543 9.52048 16.645 9.52398 16.6938 9.47867C17.0008 9.32167 17.3182 9.19262 17.6321 9.05659C17.6286 9.0043 17.681 9.03217 17.7124 9.02522C17.9949 8.86126 18.2844 8.67294 18.5634 8.48107C19.4878 7.89163 20.1017 6.9359 21.1132 6.53126C21.312 6.44409 21.5561 6.24874 21.8142 6.19295C22.0584 6.04643 22.3235 5.95924 22.606 5.92088C22.8711 5.77087 22.6758 5.35231 22.9932 5.2756C23.0629 5.22326 23.1711 5.2407 23.2199 5.16049L23.2095 5.15005C23.2793 5.16399 23.3071 5.08027 23.3559 5.04887C23.3664 4.96866 23.3455 4.89891 23.3001 4.84306L23.1292 4.76285L21.5666 4.79775C21.3364 4.82567 21.1864 5.04192 20.9876 5.13957C20.4086 5.5651 19.9133 6.17548 19.2436 6.47547C18.9471 6.58706 18.7099 6.84518 18.3821 6.8731C18.1832 6.9568 17.9983 7.06841 17.7821 7.11027C17.7647 7.12075 17.7647 7.13821 17.7577 7.15565C17.7437 7.08585 17.653 7.13821 17.6112 7.15565C17.3496 7.33699 17.1124 7.39977 16.8194 7.49399C16.2927 7.76603 15.7695 8.08693 15.2673 8.43573C15.2359 8.46711 15.2428 8.52645 15.1766 8.50203L14.7441 8.83339C14.3848 8.82636 14.1162 9.10193 13.8058 9.23801C13.607 9.38797 13.3245 9.48212 13.1117 9.6705C12.9826 9.80653 12.8466 9.98442 12.6827 10.0681C12.585 10.0123 12.5675 9.88674 12.5466 9.78209C12.1595 9.50654 12.2153 9.04963 12.149 8.63804C12.0199 8.36247 11.7688 8.11831 11.7409 7.79045C11.6328 7.48351 11.3328 7.24282 11.12 6.98472C10.8759 6.86615 10.6247 6.59756 10.3247 6.78243C10.0875 6.80333 9.93062 7.04749 9.70389 7.07541C9.16674 7.08585 8.92258 7.62304 8.5703 7.95786L8.34357 8.34503C8.36449 8.49155 8.29821 8.66246 8.35405 8.80897C8.33309 9.11241 8.59817 9.32865 8.68191 9.59028C9.07254 9.99835 9.49812 10.4135 9.88528 10.8041C10.0387 10.9576 10.0911 11.1878 10.0317 11.404C9.84342 11.7633 9.54696 11.997 9.21558 12.2307C8.8598 12.5446 8.29123 12.3493 7.93545 12.6597C7.72969 12.8411 7.47509 12.9527 7.25532 13.1131L5.53222 14.1909C4.8451 14.606 4.16494 15.0629 3.48131 15.4711C3.49875 15.5234 3.42894 15.5094 3.40453 15.5269C3.16036 15.635 2.96853 15.8756 2.69999 15.9245C2.48022 16.0257 2.1628 15.8896 1.99885 16.1268C1.9082 16.1338 1.8175 16.2105 1.72679 16.1512C1.62568 16.0501 1.64657 15.8756 1.65705 15.7536L1.67099 9.02522L1.65705 2.3736C1.59773 2.3422 1.67797 2.31426 1.65705 2.27242C1.67449 2.11197 1.60822 1.90964 1.76169 1.81901L1.88378 1.7283L8.52494 1.71783L14.1546 1.69342C14.172 1.63064 14.1999 1.71784 14.2348 1.70388C14.5836 1.67946 15.0266 1.70735 15.3893 1.68291C15.4207 1.62366 15.4242 1.69692 15.4591 1.69342C16.0939 1.68989 16.7776 1.70387 17.3635 1.68291L22.3688 1.67248C22.4107 1.63414 22.4839 1.69692 22.5398 1.65852H22.7211Z" fill="#0C00A0"/>
<path fill-rule="evenodd" clip-rule="evenodd" d="M8.36034 12.7399C8.38131 13.1724 8.00456 13.4445 7.98717 13.863C7.72554 14.2642 7.59995 14.7176 7.4221 15.1536C7.4186 15.2582 7.39764 15.3734 7.28603 15.4152C7.16393 15.4396 7.04191 15.3664 6.92327 15.3908C6.59541 15.4501 6.28847 15.5547 5.93619 15.5617C5.47578 15.5513 5.1793 15.9315 4.72584 15.9349C4.61771 15.9838 4.52701 16.0709 4.40842 16.0814L4.384 16.1058C4.11892 16.1512 3.85736 16.1965 3.59223 16.2419C3.51199 16.193 3.48062 16.0919 3.51199 16.0047C4.69792 15.1641 5.94667 14.4176 7.14999 13.5456C7.31395 13.3399 7.56855 13.3329 7.72554 13.1375L8.25921 12.8306C8.30455 12.8062 8.30455 12.7434 8.36034 12.7399Z" fill="#0C00A0"/>
<path fill-rule="evenodd" clip-rule="evenodd" d="M10.3205 14.6898C10.7809 15.1467 11.4645 15.5931 11.6599 16.2314C11.6983 16.8244 11.6843 17.4697 11.6704 18.101C11.5553 18.3312 11.3913 18.5371 11.3285 18.7917C11.0984 19.1056 10.91 19.4369 10.7984 19.7997C10.6135 20.1206 10.2891 20.3752 10.2438 20.7623C10.2403 21.1007 9.97168 21.3274 9.94726 21.6588C9.93685 22.175 9.87403 22.754 10.2194 23.1656C10.2856 23.5353 10.4879 23.8527 10.5716 24.219C10.8018 24.5608 10.8367 24.9829 11.0809 25.3177C11.0809 25.6107 11.353 25.7886 11.3634 26.0746C11.4506 26.3118 11.646 26.5036 11.6599 26.7687C11.761 26.9885 11.8239 27.2291 11.9075 27.4594L11.8971 27.6268L11.5692 28.2302C11.3739 28.2581 11.1053 28.2407 10.9902 28.4221C10.7356 28.6418 10.31 28.4395 10.0833 28.729L9.72053 28.8301L2.00508 28.8197C1.87255 28.7813 1.72606 28.7639 1.63189 28.6592L1.60742 28.0593L1.64232 23.5597V23.483L1.6528 18.2475C1.64232 18.1533 1.62839 18.0731 1.66674 17.9859C1.83765 17.7801 2.15855 17.8917 2.36782 17.7487C2.64338 17.6092 2.94337 17.522 3.23985 17.4313C3.3724 17.3999 3.49795 17.3511 3.63749 17.3407C3.72118 17.3232 3.79441 17.2848 3.88511 17.2848C4.58971 17.1453 5.29081 17.3093 6.03722 17.2709C6.49417 17.2674 6.96502 17.2988 7.36614 17.1593C7.63122 17.0685 7.92422 17.0476 8.21373 17.0127C8.74389 16.943 9.11365 16.4198 9.26715 15.9594C9.48339 15.5094 9.82171 15.0874 10.0833 14.6444C10.167 14.5433 10.2368 14.6862 10.3205 14.6898Z" fill="#0C00A0"/>
<path fill-rule="evenodd" clip-rule="evenodd" d="M14.6867 19.437C15.0913 19.9009 15.325 20.4765 15.6599 20.9892C15.754 21.1985 15.9459 21.3833 16.1377 21.4984C16.2354 21.4845 16.3609 21.5368 16.4307 21.4531C16.5458 21.4147 16.6435 21.2508 16.8039 21.3275C17.1702 21.5682 17.376 21.8995 17.6759 22.2239C17.6934 22.4053 17.7108 22.6041 17.7666 22.789C17.955 23.1064 17.8538 23.5424 18.0736 23.8459C18.2166 24.0726 18.1921 24.3691 18.4014 24.5679C18.6491 25.1504 19.0746 25.6771 19.3886 26.2107C19.6746 26.6468 19.9745 27.1386 19.8629 27.7071C19.7688 27.9896 19.8106 28.328 19.7861 28.6384C19.7618 28.7604 19.6467 28.7849 19.5595 28.8511L19.1165 28.8616H16.5668L15.8657 28.8756V28.886L15.8063 28.8511C15.189 28.8407 14.5611 28.8791 13.9507 28.8198C13.724 28.75 13.7519 28.4954 13.6892 28.321C13.6089 27.8919 13.3648 27.5362 13.2357 27.1315C13.002 26.7897 13.0543 26.3328 12.9183 25.9526C12.9078 24.983 12.9985 23.8842 12.5799 23.0401C12.566 22.7366 12.3044 22.5344 12.2277 22.2588C12.2172 22.1717 12.2835 22.1019 12.3428 22.053C12.545 22.0042 12.6846 22.1437 12.9078 22.1123C13.0578 22.0251 13.1241 21.8437 13.1555 21.6798C13.3334 21.2298 13.5287 20.7869 13.6892 20.3334C13.8321 20.1242 13.9856 19.9218 14.0065 19.6638C14.1007 19.4893 14.2088 19.3742 14.3588 19.2312C14.5053 19.2347 14.596 19.3463 14.6867 19.437Z" fill="#0C00A0"/>
<path fill-rule="evenodd" clip-rule="evenodd" d="M23.5808 29.4511C23.8633 29.5349 24.3377 29.2942 24.4284 29.7023L24.4179 36.0365C24.3656 36.176 24.3168 36.3574 24.1459 36.4097H17.993H16.985L14.1876 36.3992C14.1632 36.455 14.1388 36.3853 14.1074 36.3992L9.0114 36.3853L7.56038 36.3748C7.51853 36.3958 7.49756 36.3922 7.45921 36.3748H5.07691H2.21327C2.00743 36.4062 1.8121 36.3469 1.6447 36.2632C1.54702 36.1481 1.55052 35.9876 1.55405 35.8307L1.5784 35.5831L1.58888 32.5694L1.59936 30.1452C1.5575 30.1138 1.63076 30.1069 1.6098 30.0755C1.63772 29.8662 1.5261 29.5383 1.79119 29.4406L2.08767 29.4302L16.5455 29.4511H23.5808Z" fill="#0C00A0"/>
<path fill-rule="evenodd" clip-rule="evenodd" d="M5.79219 31.1393C5.84448 31.1533 5.85847 31.1882 5.88289 31.23L5.89332 31.2195C6.01194 31.38 5.9596 31.5753 5.9387 31.7741C5.88636 31.8718 5.78523 31.8997 5.7015 31.9451C5.15041 31.9695 4.70739 31.9381 4.14935 31.9799C4.09003 32.0043 4.04817 32.0462 4.02376 32.1055C4.00632 32.2799 4.03769 32.4334 4.20515 32.4997C4.44929 32.545 4.77367 32.4369 4.92018 32.6706C4.9481 32.9043 4.85741 33.131 4.64812 33.26C4.44929 33.281 4.24 33.2496 4.06909 33.3716L4.01332 33.5077L3.99236 34.6203C3.92608 34.732 3.82495 34.8052 3.6959 34.8122C3.52849 34.7947 3.4064 34.7041 3.29826 34.561L3.27734 34.439L3.29826 31.4567C3.40985 31.3416 3.47965 31.1149 3.661 31.1184C4.0761 31.1323 4.47023 31.094 4.88528 31.1079L4.9097 31.1289L5.79219 31.1393Z" fill="#FFF200"/>
<path fill-rule="evenodd" clip-rule="evenodd" d="M12.5435 31.4915C12.5749 31.6101 12.4877 31.6833 12.4877 31.788C12.4179 31.8787 12.3133 31.924 12.2156 31.9694L10.7751 31.9798C10.6949 32.0042 10.6425 32.0705 10.6181 32.1507C10.5937 32.2902 10.639 32.4123 10.7541 32.4891C10.932 32.6007 11.225 32.4437 11.375 32.6251C11.4587 32.7123 11.5529 32.8065 11.511 32.932C11.4168 33.0367 11.3087 33.1867 11.1378 33.1797C10.9913 33.2006 10.8239 33.1692 10.7193 33.2948C10.5867 33.4238 10.4995 33.5983 10.5623 33.7796C10.6251 33.8808 10.6879 33.9785 10.789 34.0622C10.8658 34.0901 10.9355 34.1389 11.0262 34.1424C11.4517 34.1493 11.8284 34.1389 12.2366 34.1075C12.3482 34.1249 12.4249 34.2435 12.4632 34.3342C12.4528 34.4633 12.4702 34.5644 12.3865 34.6656C12.1633 34.8958 11.7831 34.7388 11.4901 34.8016C11.0925 34.8679 10.646 34.8156 10.2553 34.8016C10.067 34.7249 9.93098 34.5679 9.89258 34.3691L9.90306 31.6066C9.96583 31.4601 9.94142 31.1985 10.1647 31.1985C10.7611 31.2369 11.4064 31.2299 11.954 31.1183C12.2052 31.1113 12.4528 31.2543 12.5435 31.4915Z" fill="#FFF200"/>
<path fill-rule="evenodd" clip-rule="evenodd" d="M13.8343 31.2649C14.0889 31.5893 14.3191 31.9521 14.6505 32.1823C14.8389 32.1648 14.9888 32.0567 15.1493 31.9695C15.4492 31.7742 15.6829 31.4289 16.0317 31.3557C16.1608 31.3801 16.3108 31.4498 16.3492 31.5824L16.3387 34.6309C16.3177 34.7495 16.1922 34.753 16.1015 34.7773C16.0282 34.8122 15.9341 34.7634 15.8643 34.732C15.669 34.5751 15.6934 34.31 15.6934 34.0623C15.6829 33.6577 15.7038 33.1973 15.7632 32.8066C15.7353 32.7264 15.7387 32.6043 15.6271 32.5904C15.4283 32.6637 15.2574 32.7892 15.069 32.8869C14.9435 32.9497 14.8179 33.0159 14.6505 32.988L14.1412 32.716C14.0505 32.6706 13.9633 32.7369 13.925 32.8066C13.8797 33.3682 13.9215 34.0204 13.8936 34.5751C13.8797 34.7215 13.7576 34.7948 13.632 34.8331C13.6215 34.8157 13.611 34.7913 13.5866 34.7878C13.6146 34.8436 13.5308 34.8331 13.4959 34.8331C13.4262 34.7878 13.3076 34.7564 13.2692 34.6518L13.2344 34.4042L13.2588 31.9242C13.2448 31.7114 13.318 31.4812 13.3809 31.2754C13.4785 31.1464 13.7576 31.0766 13.8343 31.2649Z" fill="#FFF200"/>
<path fill-rule="evenodd" clip-rule="evenodd" d="M22.6822 31.2438C22.6997 31.2577 22.6717 31.2856 22.7066 31.2996C22.7136 31.2891 22.7311 31.2821 22.7276 31.2647C22.8113 31.3589 22.8601 31.4879 22.8531 31.6274V34.0621C22.895 34.3027 22.8043 34.5922 22.602 34.7562C22.5218 34.8085 22.4136 34.8469 22.3195 34.7876C22.2253 34.7318 22.173 34.6376 22.1521 34.5399L22.173 32.4437C22.1416 32.3843 22.1032 32.3425 22.0474 32.2971C21.8277 32.2378 21.6881 32.4088 21.5277 32.4785C21.3812 32.482 21.2765 32.3983 21.2103 32.2832C21.1719 32.1402 21.1719 31.9449 21.2905 31.8437C21.6323 31.6239 21.9567 31.474 22.2742 31.2194C22.3578 31.1531 22.452 31.1531 22.5462 31.1635C22.5915 31.1914 22.6648 31.174 22.6822 31.2438Z" fill="#FFF200"/>
<path fill-rule="evenodd" clip-rule="evenodd" d="M8.86481 31.2195C9.00085 31.2474 9.00787 31.4078 9.04623 31.516C9.11946 31.8578 8.90667 32.1473 8.74272 32.4089C8.67299 32.517 8.54744 32.5345 8.45674 32.6147C8.29279 32.7856 7.90561 32.8763 7.99285 33.2041C8.05563 33.4343 8.22656 33.6297 8.32071 33.8355C8.53345 33.9959 8.76368 34.1215 8.99041 34.2436C9.03222 34.3203 9.11946 34.3866 9.07062 34.4842C9.02179 34.5679 8.99387 34.6796 8.88923 34.7214C8.63463 34.8575 8.30327 34.7702 8.0835 34.6203C7.69985 34.3656 7.66149 33.9471 7.4487 33.6123C7.41035 33.4553 7.35455 33.3088 7.28129 33.1693C7.22198 33.1448 7.14872 33.1971 7.13128 33.26C7.02665 33.7239 7.21149 34.2819 7.01967 34.697C6.93593 34.8156 6.7825 34.8086 6.65691 34.7877C6.37093 34.6691 6.44066 34.3238 6.43018 34.0517L6.44066 31.8892C6.42322 31.6101 6.52786 31.3485 6.74763 31.1985L8.86481 31.2195Z" fill="#FFF200"/>
<path fill-rule="evenodd" clip-rule="evenodd" d="M20.0229 31.2438C20.1868 31.2996 20.3089 31.4705 20.3298 31.6379C20.3682 31.9763 20.1938 32.2309 20.0682 32.4994C19.9113 32.5936 19.8241 32.7541 19.7403 32.8971C19.7264 33.0575 19.9078 33.0819 20.0229 33.1447C20.4798 33.3819 20.3751 33.9191 20.3751 34.3341C20.3333 34.5364 20.2775 34.7492 20.0578 34.8225C19.709 34.819 19.3497 34.8852 19.0148 34.812C18.7672 34.8608 18.4742 34.7631 18.2091 34.812C18.1289 34.7876 18.0522 34.7667 17.9719 34.7423C17.9405 34.7248 17.9266 34.669 17.8813 34.6864C17.7905 34.5574 17.5987 34.4562 17.6545 34.2574C17.7452 34.083 17.9022 33.9121 18.0975 33.8702C18.3521 33.8877 18.5196 34.1842 18.8091 34.1528C18.802 34.1772 18.8195 34.1877 18.8335 34.1981C18.9451 34.1388 19.0742 34.1772 19.1962 34.1667C19.3601 34.1074 19.5973 34.1632 19.6706 33.9609C19.702 33.7761 19.5415 33.7167 19.4229 33.633C19.2555 33.4691 19.0288 33.3505 18.9904 33.1133C18.9799 32.7332 19.3078 32.4855 19.4543 32.182C19.4892 32.1192 19.4508 32.046 19.3986 32.0146C19.1334 31.9902 18.8265 31.9623 18.537 31.9902C18.3556 32.0286 18.251 32.346 18.0382 32.3076C17.9231 32.3146 17.7801 32.2797 17.7208 32.1611L17.6894 32.1506C17.6476 31.9169 17.5987 31.5681 17.7905 31.3798C18.0243 31.0903 18.4393 31.2647 18.7776 31.2298C19.1823 31.2507 19.5869 31.188 20.0229 31.2438Z" fill="#FFF200"/>
<path fill-rule="evenodd" clip-rule="evenodd" d="M8.19468 32.0705C8.07611 32.3566 7.70637 32.2659 7.50407 32.4542C7.40289 32.4612 7.32618 32.5484 7.21804 32.4996C7.04366 32.4124 7.08547 32.1891 7.09595 32.0252C7.16921 31.8159 7.41683 31.8857 7.55988 31.7741C7.79702 31.8054 8.03423 31.8717 8.19468 32.0705Z" fill="#0C00A0"/>
<path fill-rule="evenodd" clip-rule="evenodd" d="M17.5409 32.7052L17.6002 32.7611C17.5793 32.9285 17.6699 33.211 17.4293 33.3052C17.1921 33.2703 16.8468 33.4063 16.7596 33.0994C16.7038 32.9773 16.7143 32.7995 16.7945 32.6913C16.8782 32.5797 16.9933 32.5344 17.1363 32.5553C17.22 32.5274 17.3316 32.5623 17.4293 32.5692C17.4711 32.6006 17.5409 32.6425 17.5409 32.7052Z" fill="#FFF200"/>
</svg>
