<svg width="192" height="72" viewBox="0 0 192 72" fill="none" xmlns="http://www.w3.org/2000/svg">
<path fill-rule="evenodd" clip-rule="evenodd" d="M42.4568 5.27242L42.4385 5.29638C42.5482 5.36805 42.6093 5.44582 42.6519 5.56541C42.6641 5.60723 42.5726 5.62517 42.6336 5.66108H42.6763L42.7128 10.0915V15.6102V27.6281L42.6763 32.8955V38.9104L42.6519 45.2423L42.597 49.5771V52.1003L42.5361 63.7952L42.4934 66.707C42.4385 66.8326 42.2739 66.8685 42.219 66.9581L42.1398 67H35.7993C35.7567 66.9581 35.7079 66.9581 35.6651 67L31.3488 66.9761L28.0383 67C27.9346 66.9104 27.7883 67.0658 27.6847 66.9581L27.6055 67L19.4421 66.9761L13.504 66.9581H8.13896C8.05972 66.8446 8.00484 67.0179 7.90122 66.9581L7.04771 66.8805L0.786451 66.8625C0.548711 66.8266 0.329175 66.707 0.134161 66.6114C0.152402 66.4799 0 66.5217 0 66.3962L0.0183172 62.1032L0.0548776 62.0614L0.0183172 62.0255L0.0975269 48.5248L0.152404 38.779L0.17681 32.214L0.195128 20.4832L0.213371 6.40246C0.335344 5.81057 0.84133 5.27843 1.44484 5.14091L1.92043 5.09901L9.06567 5.08111C9.16929 5.21266 9.20584 4.9675 9.28513 5.11695L13.4613 5.08111C13.5162 5.14688 13.5589 5.08701 13.6198 5.08111L31.9584 5.06317C31.9523 5.08111 31.9707 5.08701 31.9767 5.09901C32.0986 5.02132 32.2694 5.09303 32.3974 5.03926C32.5559 5.05118 32.7876 5.00932 32.9522 5.08111L33.0863 5.03926H36.2383L41.3655 5.02132L41.3838 5.00334C41.7557 5.00334 42.2008 4.94956 42.4568 5.27242Z" fill="#2151A8"/>
<path fill-rule="evenodd" clip-rule="evenodd" d="M41.2862 6.75642L41.2691 6.7794C41.3722 6.8482 41.4295 6.92264 41.4697 7.03724C41.4811 7.07735 41.3951 7.09453 41.4524 7.12889H41.4926L41.5269 11.3749V16.6638V28.1813L41.4926 33.2296V38.994L41.4697 45.0622L41.418 49.2165V51.6347L41.3608 62.8428L41.3207 65.6333C41.2691 65.7536 41.1143 65.788 41.0628 65.874L40.9883 65.9141H35.029C34.9889 65.874 34.943 65.874 34.9029 65.9141L30.846 65.8912L27.7345 65.9141C27.6371 65.8282 27.4996 65.9771 27.4022 65.874L27.3277 65.9141L19.6551 65.8912L14.074 65.874H9.03147C8.95699 65.7651 8.90544 65.9313 8.80799 65.874L8.00583 65.7995L2.12098 65.7823C1.89751 65.748 1.69118 65.6333 1.50786 65.5416C1.52508 65.4156 1.38184 65.4557 1.38184 65.3354L1.39894 61.2211L1.43338 61.181L1.39894 61.1467L1.4735 48.208L1.52507 38.8679L1.54793 32.5764L1.56516 21.3338L1.5823 7.83947C1.69697 7.27214 2.17256 6.76218 2.73982 6.63041L3.18676 6.59029L9.9025 6.57307C9.99987 6.69917 10.0342 6.46426 10.1088 6.60751L14.0339 6.57307C14.0855 6.63615 14.1256 6.57882 14.1828 6.57307L31.419 6.55592C31.4133 6.57307 31.4304 6.57882 31.4362 6.59029C31.5508 6.51585 31.7112 6.58453 31.8316 6.53295C31.9806 6.54449 32.1983 6.50431 32.3531 6.57307L32.4791 6.53295H35.4416L40.2606 6.51584L40.2777 6.49863C40.6273 6.49863 41.0456 6.44704 41.2862 6.75642Z" fill="#FFF200"/>
<path fill-rule="evenodd" clip-rule="evenodd" d="M37.3214 7.72476H39.7796C39.9572 7.81642 40.1864 7.9024 40.261 8.12016L40.3011 17.0133L40.261 38.7017L40.1864 51.1705C40.112 51.5486 40.3125 52.1217 39.8713 52.3451C39.6421 52.305 39.4759 52.1044 39.2753 51.9898C37.9288 51.9325 36.9833 50.8782 35.9061 50.2193C35.4305 49.7265 35.0294 49.1706 34.9205 48.506C34.4105 47.8355 34.6683 46.9187 34.2329 46.2197C34.1813 45.469 33.9177 44.8043 33.6713 44.1339C33.6942 43.4234 33.0983 42.9649 33.0753 42.2715C32.7259 41.6126 32.6914 40.8677 32.6685 40.0941C32.2789 39.4409 31.8262 38.845 31.2933 38.2719C31.1787 38.3006 31.2704 38.2204 31.2188 38.1803C30.8463 37.7219 30.5369 37.2119 30.4338 36.6331C30.2791 36.1576 29.9525 35.7565 29.855 35.2579C29.5743 34.8397 29.4597 34.3583 29.1102 33.9686C28.5543 32.9544 28.0501 31.9116 27.6432 30.8229C27.3281 30.5593 27.0015 30.1639 26.6577 29.8946C26.2794 29.3903 25.7465 28.9491 25.4085 28.4219C25.4429 27.8719 25.0074 27.5165 24.887 27.0295C24.8183 26.1241 24.9501 25.0927 24.7209 24.2389C24.7438 23.9525 24.6234 23.729 24.5318 23.494C24.7725 22.9153 25.2251 22.4283 25.4257 21.838C25.9528 21.3968 26.5087 20.9843 27.139 20.7206C27.1905 20.6404 27.3395 20.6462 27.4197 20.5717C27.924 20.3138 28.4455 20.1018 28.9612 19.8783C28.9554 19.7924 29.0414 19.8382 29.093 19.8268C29.5571 19.5574 30.0327 19.2481 30.4911 18.9329C32.0096 17.9645 33.0181 16.3945 34.6798 15.7297C35.0064 15.5865 35.4075 15.2656 35.8315 15.1739C36.2327 14.9332 36.6682 14.79 37.1323 14.727C37.5678 14.4805 37.2469 13.7929 37.7683 13.6669C37.8829 13.5809 38.0606 13.6096 38.1408 13.4778L38.1236 13.4607C38.2383 13.4836 38.2841 13.346 38.3643 13.2944C38.3815 13.1627 38.3471 13.0481 38.2726 12.9563L37.9918 12.8246L35.4247 12.8819C35.0465 12.9278 34.8001 13.283 34.4735 13.4434C33.5224 14.1425 32.7087 15.1452 31.6085 15.6381C31.1214 15.8214 30.7318 16.2454 30.1932 16.2913C29.8665 16.4288 29.5628 16.6121 29.2075 16.6809C29.1789 16.6981 29.1789 16.7268 29.1674 16.7555C29.1445 16.6408 28.9955 16.7268 28.9268 16.7555C28.497 17.0534 28.1073 17.1565 27.6261 17.3113C26.7608 17.7582 25.9013 18.2854 25.0761 18.8584C25.0246 18.9099 25.036 19.0074 24.9271 18.9673L24.2166 19.5117C23.6264 19.5001 23.1852 19.9528 22.6752 20.1764C22.3486 20.4227 21.8845 20.5774 21.5349 20.8869C21.323 21.1103 21.0994 21.4026 20.8302 21.5401C20.6697 21.4484 20.641 21.2421 20.6066 21.0702C19.9707 20.6175 20.0624 19.8669 19.9534 19.1907C19.7414 18.738 19.3288 18.3369 19.2831 17.7983C19.1054 17.2941 18.6126 16.8987 18.263 16.4746C17.862 16.2799 17.4494 15.8386 16.9566 16.1423C16.5669 16.1767 16.3091 16.5778 15.9366 16.6236C15.0542 16.6408 14.6531 17.5233 14.0744 18.0733L13.7019 18.7094C13.7363 18.9501 13.6274 19.2308 13.7191 19.4715C13.6847 19.97 14.1202 20.3253 14.2577 20.7551C14.8995 21.4255 15.5986 22.1074 16.2346 22.7491C16.4867 23.0012 16.5727 23.3795 16.4752 23.7347C16.1659 24.3249 15.6788 24.7088 15.1344 25.0927C14.55 25.6084 13.6159 25.2876 13.0314 25.7975C12.6934 26.0955 12.2752 26.2789 11.9141 26.5424L9.08341 28.313C7.95461 28.995 6.83725 29.7456 5.71417 30.416C5.74281 30.5019 5.62814 30.4791 5.58803 30.5077C5.18691 30.6853 4.87178 31.0807 4.43062 31.1609C4.06958 31.3271 3.54812 31.1036 3.27878 31.4933C3.12986 31.5047 2.98087 31.6308 2.83184 31.5334C2.66573 31.3672 2.70006 31.0807 2.71728 30.8802L2.74018 19.8268L2.71728 8.8995C2.61983 8.84792 2.75164 8.80201 2.71728 8.73328C2.74593 8.4697 2.63705 8.13731 2.88917 7.98842L3.08975 7.83939L13.9999 7.8222L23.2482 7.78209C23.2769 7.67897 23.3227 7.82221 23.38 7.79927C23.9531 7.75916 24.6808 7.80499 25.2767 7.76484C25.3283 7.6675 25.334 7.78785 25.3913 7.78209C26.4342 7.7763 27.5573 7.79927 28.5199 7.76484L36.7426 7.74769C36.8114 7.68472 36.9317 7.78785 37.0234 7.72476H37.3214Z" fill="#2151A8"/>
<path fill-rule="evenodd" clip-rule="evenodd" d="M13.7356 25.9293C13.77 26.6399 13.1511 27.0868 13.1225 27.7744C12.6927 28.4334 12.4864 29.1783 12.1942 29.8946C12.1885 30.0665 12.154 30.2556 11.9707 30.3243C11.7701 30.3645 11.5696 30.2442 11.3747 30.2843C10.8361 30.3816 10.3319 30.5535 9.75315 30.565C8.99679 30.5479 8.50973 31.1724 7.76479 31.1781C7.58715 31.2584 7.43815 31.4016 7.24333 31.4188L7.20321 31.4589C6.76774 31.5334 6.33805 31.6079 5.90249 31.6824C5.77068 31.6022 5.71913 31.436 5.77068 31.2927C7.71892 29.9118 9.77037 28.6855 11.7472 27.253C12.0165 26.915 12.4348 26.9035 12.6927 26.5826L13.5694 26.0783C13.6439 26.0382 13.6439 25.9351 13.7356 25.9293Z" fill="#2151A8"/>
<path fill-rule="evenodd" clip-rule="evenodd" d="M16.9564 29.1325C17.7128 29.8831 18.8359 30.6165 19.1568 31.6651C19.2198 32.6393 19.1969 33.6994 19.174 34.7365C18.9849 35.1147 18.7156 35.4528 18.6124 35.8711C18.2343 36.3868 17.9248 36.9312 17.7415 37.5271C17.4378 38.0542 16.9049 38.4725 16.8304 39.1085C16.8247 39.6643 16.3834 40.0368 16.3433 40.5812C16.3262 41.4293 16.223 42.3804 16.7903 43.0566C16.8991 43.664 17.2315 44.1854 17.369 44.7871C17.7472 45.3486 17.8045 46.042 18.2056 46.592C18.2056 47.0734 18.6526 47.3656 18.6697 47.8355C18.813 48.2252 19.1339 48.5403 19.1568 48.9758C19.3229 49.3368 19.4261 49.7321 19.5636 50.1104L19.5464 50.3854L19.0078 51.3767C18.6869 51.4226 18.2457 51.3939 18.0566 51.6919C17.6384 52.0528 16.9392 51.7205 16.5668 52.1961L15.9708 52.3623L3.29585 52.3451C3.07813 52.2821 2.83748 52.2534 2.68277 52.0815L2.64258 51.0959L2.69991 43.7041V43.5781L2.71713 34.9772C2.69991 34.8224 2.67702 34.6907 2.74003 34.5474C3.0208 34.2093 3.54798 34.3927 3.89176 34.1577C4.34446 33.9286 4.83727 33.7853 5.32433 33.6364C5.54209 33.5847 5.74834 33.5045 5.97757 33.4874C6.11506 33.4587 6.23537 33.3957 6.38436 33.3957C7.54188 33.1665 8.69365 33.4358 9.91985 33.3727C10.6705 33.367 11.4441 33.4186 12.103 33.1894C12.5385 33.0403 13.0198 33.006 13.4954 32.9487C14.3664 32.8341 14.9738 31.9746 15.226 31.2182C15.5812 30.479 16.137 29.7857 16.5668 29.058C16.7043 28.8918 16.8189 29.1267 16.9564 29.1325Z" fill="#2151A8"/>
<path fill-rule="evenodd" clip-rule="evenodd" d="M24.1236 36.9312C24.7883 37.6933 25.1722 38.6387 25.7223 39.4811C25.8769 39.8249 26.1922 40.1285 26.5073 40.3177C26.6677 40.2948 26.874 40.3807 26.9886 40.2432C27.1777 40.1801 27.3381 39.9109 27.6017 40.0368C28.2034 40.4322 28.5415 40.9766 29.0343 41.5095C29.0629 41.8075 29.0916 42.1341 29.1833 42.4378C29.4927 42.9593 29.3265 43.6755 29.6875 44.174C29.9224 44.5465 29.8823 45.0336 30.2261 45.3601C30.633 46.3171 31.332 47.1823 31.8478 48.0591C32.3176 48.7753 32.8104 49.5833 32.6271 50.5173C32.4723 50.9814 32.541 51.5372 32.5009 52.0472C32.4609 52.2477 32.2718 52.2879 32.1286 52.3967L31.4009 52.4139H27.2121L26.0604 52.4368V52.454L25.9629 52.3967C24.9487 52.3796 23.9172 52.4426 22.9145 52.3452C22.542 52.2306 22.5879 51.8122 22.4848 51.5257C22.353 50.8209 21.9519 50.2365 21.7399 49.5717C21.356 49.0102 21.4419 48.2596 21.2184 47.635C21.2012 46.042 21.3502 44.237 20.6626 42.8504C20.6397 42.3518 20.2099 42.0195 20.0838 41.5669C20.0666 41.4236 20.1755 41.309 20.273 41.2287C20.6052 41.1485 20.8345 41.3777 21.2012 41.3262C21.4476 41.1829 21.5565 40.8849 21.6081 40.6156C21.9003 39.8764 22.2211 39.1487 22.4848 38.4038C22.7197 38.0601 22.9718 37.7276 23.0062 37.3037C23.1609 37.0171 23.3385 36.828 23.5849 36.5931C23.8256 36.5988 23.9746 36.7822 24.1236 36.9312Z" fill="#2151A8"/>
<path fill-rule="evenodd" clip-rule="evenodd" d="M38.7366 53.3823C39.2007 53.5199 39.98 53.1244 40.129 53.7949L40.1118 64.2007C40.0259 64.4299 39.9456 64.7279 39.6649 64.8139H29.5569H27.9009L23.3054 64.7967C23.2653 64.8883 23.2252 64.7738 23.1736 64.7967L14.8019 64.7738L12.4182 64.7565C12.3494 64.791 12.315 64.7852 12.252 64.7565H8.33835H3.63395C3.29581 64.8081 2.97492 64.7108 2.6999 64.5732C2.53944 64.3842 2.5452 64.1205 2.55099 63.8627L2.59099 63.4559L2.60821 58.505L2.62543 54.5226C2.55666 54.471 2.67701 54.4596 2.64257 54.408C2.68844 54.0642 2.50508 53.5256 2.94056 53.3651L3.42762 53.3479L27.1789 53.3823H38.7366Z" fill="#2151A8"/>
<path fill-rule="evenodd" clip-rule="evenodd" d="M9.51323 56.1556C9.59914 56.1785 9.62211 56.2358 9.66223 56.3045L9.67937 56.2874C9.87423 56.551 9.78825 56.8718 9.75392 57.1985C9.66794 57.3589 9.5018 57.4047 9.36424 57.4793C8.45892 57.5194 7.73112 57.4678 6.81437 57.5365C6.71692 57.5766 6.64816 57.6454 6.60804 57.7429C6.57939 58.0293 6.63094 58.2814 6.90603 58.3903C7.30711 58.4648 7.84 58.2872 8.08069 58.6711C8.12656 59.0551 7.97757 59.4275 7.63375 59.6395C7.30711 59.6739 6.96329 59.6223 6.68252 59.8228L6.5909 60.0463L6.55646 61.8742C6.44758 62.0576 6.28144 62.1779 6.06944 62.1894C5.79442 62.1607 5.59384 62.0118 5.4162 61.7768L5.38184 61.5762L5.4162 56.677C5.59952 56.4879 5.71419 56.1155 6.0121 56.1212C6.69403 56.1441 7.34151 56.0811 8.02336 56.104L8.06348 56.1384L9.51323 56.1556Z" fill="#FFF200"/>
<path fill-rule="evenodd" clip-rule="evenodd" d="M20.6058 56.7344C20.6575 56.9291 20.5143 57.0495 20.5143 57.2214C20.3996 57.3704 20.2277 57.4449 20.0672 57.5194L17.7007 57.5366C17.569 57.5766 17.483 57.6855 17.4429 57.8173C17.4027 58.0465 17.4773 58.2471 17.6663 58.3732C17.9585 58.5565 18.4399 58.2987 18.6862 58.5966C18.8238 58.7399 18.9786 58.8946 18.9098 59.1009C18.755 59.2728 18.5774 59.5192 18.2967 59.5078C18.056 59.5421 17.781 59.4906 17.6091 59.6968C17.3913 59.9088 17.248 60.1954 17.3512 60.4933C17.4544 60.6595 17.5575 60.82 17.7236 60.9575C17.8497 61.0033 17.9643 61.0836 18.1133 61.0892C18.8123 61.1007 19.4312 61.0836 20.1017 61.032C20.285 61.0605 20.4111 61.2554 20.4741 61.4044C20.4569 61.6164 20.4856 61.7826 20.348 61.9487C19.9813 62.3269 19.3567 62.0691 18.8754 62.1722C18.2222 62.2811 17.4887 62.1952 16.8469 62.1722C16.5375 62.0462 16.3141 61.7883 16.251 61.4617L16.2682 56.9235C16.3713 56.6828 16.3312 56.253 16.698 56.253C17.6778 56.3161 18.7379 56.3046 19.6375 56.1212C20.0501 56.1098 20.4569 56.3447 20.6058 56.7344Z" fill="#FFF200"/>
<path fill-rule="evenodd" clip-rule="evenodd" d="M22.7267 56.362C23.1451 56.8949 23.5232 57.4908 24.0676 57.869C24.3771 57.8403 24.6234 57.6627 24.887 57.5195C25.3798 57.1986 25.7637 56.6313 26.3367 56.511C26.5487 56.5511 26.7951 56.6657 26.8582 56.8834L26.841 61.8916C26.8066 62.0864 26.6003 62.0921 26.4513 62.1322C26.331 62.1895 26.1763 62.1093 26.0617 62.0577C25.7408 61.7999 25.7809 61.3643 25.7809 60.9575C25.7637 60.2928 25.7981 59.5364 25.8955 58.8947C25.8497 58.7629 25.8554 58.5623 25.672 58.5394C25.3454 58.6598 25.0647 58.866 24.7552 59.0265C24.5489 59.1296 24.3426 59.2385 24.0676 59.1926L23.231 58.7457C23.082 58.6713 22.9387 58.7801 22.8757 58.8947C22.8013 59.8172 22.87 60.8887 22.8242 61.7999C22.8013 62.0405 22.6007 62.1608 22.3944 62.2238C22.3772 62.1952 22.36 62.1551 22.3199 62.1494C22.3658 62.241 22.2282 62.2238 22.1709 62.2238C22.0563 62.1494 21.8615 62.0978 21.7984 61.9259L21.7412 61.5191L21.7813 57.4449C21.7583 57.0954 21.8787 56.7172 21.9819 56.3792C22.1423 56.1672 22.6007 56.0525 22.7267 56.362Z" fill="#FFF200"/>
<path fill-rule="evenodd" clip-rule="evenodd" d="M37.2632 56.3275C37.2918 56.3504 37.2459 56.3962 37.3033 56.4192C37.3147 56.402 37.3434 56.3905 37.3377 56.3618C37.4752 56.5165 37.5554 56.7286 37.5439 56.9578V60.9574C37.6127 61.3528 37.4637 61.8284 37.1314 62.0977C36.9996 62.1837 36.8219 62.2467 36.6672 62.1492C36.5125 62.0576 36.4266 61.9029 36.3922 61.7424L36.4266 58.2987C36.375 58.2012 36.312 58.1324 36.2203 58.058C35.8593 57.9605 35.63 58.2413 35.3665 58.3559C35.1258 58.3617 34.9539 58.2241 34.8451 58.0351C34.782 57.8001 34.782 57.4792 34.9769 57.313C35.5384 56.952 36.0713 56.7057 36.5928 56.2874C36.7302 56.1785 36.885 56.1785 37.0397 56.1957C37.1142 56.2415 37.2345 56.2128 37.2632 56.3275Z" fill="#FFF200"/>
<path fill-rule="evenodd" clip-rule="evenodd" d="M14.5561 56.2875C14.7796 56.3334 14.7911 56.5969 14.8541 56.7746C14.9744 57.3361 14.6249 57.8117 14.3555 58.2414C14.241 58.4191 14.0347 58.4478 13.8857 58.5796C13.6164 58.8603 12.9803 59.0093 13.1236 59.5479C13.2268 59.9261 13.5076 60.247 13.6622 60.5851C14.0117 60.8486 14.39 61.055 14.7624 61.2555C14.8311 61.3815 14.9744 61.4905 14.8942 61.6509C14.814 61.7884 14.7681 61.9717 14.5962 62.0405C14.1779 62.264 13.6336 62.1207 13.2726 61.8744C12.6423 61.456 12.5793 60.7684 12.2297 60.2184C12.1667 59.9605 12.075 59.7199 11.9547 59.4907C11.8572 59.4505 11.7369 59.5364 11.7082 59.6397C11.5364 60.4017 11.84 61.3185 11.5249 62.0004C11.3873 62.1953 11.1353 62.1838 10.9289 62.1494C10.4591 61.9546 10.5737 61.3873 10.5565 60.9403L10.5737 57.3877C10.545 56.9293 10.7169 56.4995 11.078 56.2531L14.5561 56.2875Z" fill="#FFF200"/>
<path fill-rule="evenodd" clip-rule="evenodd" d="M32.8915 56.3276C33.1609 56.4193 33.3614 56.7001 33.3958 56.9751C33.4588 57.5309 33.1723 57.9492 32.966 58.3904C32.7082 58.5451 32.5649 58.8087 32.4274 59.0437C32.4045 59.3073 32.7024 59.3474 32.8915 59.4505C33.6421 59.8401 33.4702 60.7226 33.4702 61.4044C33.4015 61.7368 33.3099 62.0863 32.9489 62.2067C32.3758 62.2009 31.7857 62.3098 31.2355 62.1895C30.8287 62.2697 30.3473 62.1092 29.9118 62.1895C29.7801 62.1494 29.6541 62.115 29.5222 62.0749C29.4706 62.0462 29.4477 61.9546 29.3733 61.9832C29.2242 61.7712 28.9091 61.605 29.0008 61.2784C29.1497 60.9918 29.4076 60.7111 29.7285 60.6424C30.1468 60.671 30.4219 61.1581 30.8975 61.1065C30.8859 61.1466 30.9146 61.1638 30.9376 61.181C31.121 61.0836 31.333 61.1466 31.5335 61.1294C31.8028 61.032 32.1924 61.1237 32.3128 60.7914C32.3644 60.4877 32.1008 60.3902 31.9059 60.2527C31.6309 59.9834 31.2584 59.7886 31.1954 59.399C31.1782 58.7744 31.7169 58.3675 31.9575 57.869C32.0148 57.7658 31.9518 57.6455 31.8659 57.594C31.4303 57.5538 30.9261 57.5079 30.4505 57.5538C30.1525 57.6168 29.9807 58.1383 29.6311 58.0753C29.442 58.0867 29.207 58.0294 29.1097 57.8346L29.058 57.8174C28.9893 57.4335 28.9091 56.8605 29.2242 56.5511C29.6082 56.0755 30.29 56.362 30.8458 56.3047C31.5106 56.3391 32.1752 56.236 32.8915 56.3276Z" fill="#FFF200"/>
<path fill-rule="evenodd" clip-rule="evenodd" d="M13.4614 57.6856C13.2666 58.1555 12.6592 58.0065 12.3268 58.3159C12.1606 58.3274 12.0346 58.4707 11.857 58.3904C11.5705 58.2472 11.6392 57.8804 11.6564 57.6111C11.7767 57.2674 12.1835 57.382 12.4185 57.1986C12.8081 57.2501 13.1978 57.359 13.4614 57.6856Z" fill="#2151A8"/>
<path fill-rule="evenodd" clip-rule="evenodd" d="M28.8117 58.7284L28.9092 58.8201C28.8747 59.0952 29.0237 59.5593 28.6283 59.714C28.2387 59.6567 27.6714 59.8802 27.5282 59.3759C27.4365 59.1754 27.4537 58.8832 27.5855 58.7055C27.7229 58.5222 27.9121 58.4477 28.147 58.482C28.2846 58.4362 28.4679 58.4935 28.6283 58.5049C28.6971 58.5565 28.8117 58.6253 28.8117 58.7284Z" fill="#FFF200"/>
<path d="M1.91595 5.88479H41.0625C41.6291 5.88479 42.0927 6.41075 42.0927 7.05359V65.2624C42.0927 65.9053 41.6291 66.4312 41.0625 66.4312H1.91595C1.3493 66.4312 0.885742 65.9053 0.885742 65.2624V7.05359C0.885742 6.41075 1.3493 5.88479 1.91595 5.88479Z" stroke="#EC008C" stroke-width="0.288" stroke-miterlimit="2.613"/>
<path d="M58.8329 31.288C57.7649 31.288 56.8769 31.114 56.1689 30.766C55.4609 30.406 54.9029 29.89 54.4949 29.218C54.0869 28.546 53.7929 27.736 53.6129 26.788C53.4449 25.84 53.3609 24.772 53.3609 23.584L57.1769 23.224C57.1769 23.8 57.1949 24.358 57.2309 24.898C57.2789 25.426 57.3569 25.906 57.4649 26.338C57.5849 26.758 57.7529 27.094 57.9689 27.346C58.1969 27.598 58.4849 27.724 58.8329 27.724C59.4089 27.724 59.8169 27.46 60.0569 26.932C60.2969 26.392 60.4169 25.744 60.4169 24.988C60.4169 24.232 60.2189 23.446 59.8229 22.63C59.4269 21.814 58.9529 21.04 58.4009 20.308C57.4649 19.06 56.6429 17.902 55.9349 16.834C55.2389 15.766 54.6929 14.716 54.2969 13.684C53.9129 12.652 53.7209 11.572 53.7209 10.444C53.7209 9.556 53.8349 8.74 54.0629 7.996C54.2909 7.24 54.6209 6.586 55.0529 6.034C55.4969 5.47 56.0309 5.032 56.6549 4.72C57.2789 4.408 57.9929 4.252 58.7969 4.252C59.7929 4.252 60.6329 4.42 61.3169 4.756C62.0129 5.092 62.5709 5.572 62.9909 6.196C63.4229 6.82 63.7349 7.564 63.9269 8.428C64.1309 9.28 64.2329 10.228 64.2329 11.272L60.4169 11.632C60.4169 11.188 60.3929 10.744 60.3449 10.3C60.3089 9.844 60.2369 9.43 60.1289 9.058C60.0209 8.686 59.8649 8.386 59.6609 8.158C59.4569 7.93 59.1929 7.816 58.8689 7.816C58.3649 7.816 58.0169 8.032 57.8249 8.464C57.6329 8.884 57.5369 9.484 57.5369 10.264C57.5369 11.272 57.8069 12.244 58.3469 13.18C58.8869 14.116 59.6129 15.208 60.5249 16.456C61.6169 17.932 62.5049 19.288 63.1889 20.524C63.8849 21.76 64.2329 23.128 64.2329 24.628C64.2329 25.576 64.1309 26.458 63.9269 27.274C63.7229 28.078 63.3989 28.78 62.9549 29.38C62.5229 29.98 61.9649 30.448 61.2809 30.784C60.6089 31.12 59.7929 31.288 58.8329 31.288ZM66.317 31V4.54H70.205C71.681 4.54 72.911 4.864 73.895 5.512C74.891 6.16 75.635 7.078 76.127 8.266C76.619 9.454 76.865 10.852 76.865 12.46C76.865 14.068 76.607 15.454 76.091 16.618C75.575 17.782 74.819 18.694 73.823 19.354C72.839 20.002 71.633 20.356 70.205 20.416V31H66.317ZM70.205 16.456C70.889 16.456 71.429 16.324 71.825 16.06C72.221 15.784 72.503 15.352 72.671 14.764C72.851 14.176 72.941 13.42 72.941 12.496C72.941 11.56 72.851 10.798 72.671 10.21C72.503 9.622 72.215 9.19 71.807 8.914C71.411 8.638 70.877 8.5 70.205 8.5V16.456ZM83.9772 31.288C82.8972 31.288 81.9672 31.036 81.1872 30.532C80.4192 30.028 79.8252 29.344 79.4052 28.48C78.9972 27.616 78.7932 26.644 78.7932 25.564V9.976C78.7932 8.884 78.9972 7.912 79.4052 7.06C79.8252 6.196 80.4192 5.512 81.1872 5.008C81.9672 4.504 82.8972 4.252 83.9772 4.252C85.0572 4.252 85.9812 4.504 86.7492 5.008C87.5292 5.512 88.1232 6.196 88.5312 7.06C88.9512 7.924 89.1612 8.896 89.1612 9.976V25.564C89.1612 26.644 88.9512 27.616 88.5312 28.48C88.1232 29.344 87.5292 30.028 86.7492 30.532C85.9812 31.036 85.0572 31.288 83.9772 31.288ZM83.9772 27.508C84.4572 27.508 84.7932 27.31 84.9852 26.914C85.1772 26.506 85.2732 26.056 85.2732 25.564V9.976C85.2732 9.484 85.1712 9.04 84.9672 8.644C84.7632 8.236 84.4332 8.032 83.9772 8.032C83.5332 8.032 83.2032 8.236 82.9872 8.644C82.7832 9.04 82.6812 9.484 82.6812 9.976V25.564C82.6812 26.056 82.7832 26.506 82.9872 26.914C83.1912 27.31 83.5212 27.508 83.9772 27.508ZM91.8755 31V4.54H95.7635C98.0915 4.54 99.8075 5.188 100.912 6.484C102.016 7.768 102.568 9.664 102.568 12.172C102.568 13.66 102.304 14.95 101.776 16.042C101.26 17.122 100.63 17.914 99.8855 18.418L102.532 31H98.6435L96.4475 19.84H95.7635V31H91.8755ZM95.7635 16.24C96.4835 16.24 97.0535 16.084 97.4735 15.772C97.8935 15.448 98.1935 14.992 98.3735 14.404C98.5535 13.816 98.6435 13.12 98.6435 12.316C98.6435 11.056 98.4335 10.09 98.0135 9.418C97.6055 8.734 96.8555 8.392 95.7635 8.392V16.24ZM107.335 31V8.536H103.663V4.54H114.895V8.536H111.223V31H107.335ZM121.376 31.288C120.308 31.288 119.42 31.114 118.712 30.766C118.004 30.406 117.446 29.89 117.038 29.218C116.63 28.546 116.336 27.736 116.156 26.788C115.988 25.84 115.904 24.772 115.904 23.584L119.72 23.224C119.72 23.8 119.738 24.358 119.774 24.898C119.822 25.426 119.9 25.906 120.008 26.338C120.128 26.758 120.296 27.094 120.512 27.346C120.74 27.598 121.028 27.724 121.376 27.724C121.952 27.724 122.36 27.46 122.6 26.932C122.84 26.392 122.96 25.744 122.96 24.988C122.96 24.232 122.762 23.446 122.366 22.63C121.97 21.814 121.496 21.04 120.944 20.308C120.008 19.06 119.186 17.902 118.478 16.834C117.782 15.766 117.236 14.716 116.84 13.684C116.456 12.652 116.264 11.572 116.264 10.444C116.264 9.556 116.378 8.74 116.606 7.996C116.834 7.24 117.164 6.586 117.596 6.034C118.04 5.47 118.574 5.032 119.198 4.72C119.822 4.408 120.536 4.252 121.34 4.252C122.336 4.252 123.176 4.42 123.86 4.756C124.556 5.092 125.114 5.572 125.534 6.196C125.966 6.82 126.278 7.564 126.47 8.428C126.674 9.28 126.776 10.228 126.776 11.272L122.96 11.632C122.96 11.188 122.936 10.744 122.888 10.3C122.852 9.844 122.78 9.43 122.672 9.058C122.564 8.686 122.408 8.386 122.204 8.158C122 7.93 121.736 7.816 121.412 7.816C120.908 7.816 120.56 8.032 120.368 8.464C120.176 8.884 120.08 9.484 120.08 10.264C120.08 11.272 120.35 12.244 120.89 13.18C121.43 14.116 122.156 15.208 123.068 16.456C124.16 17.932 125.048 19.288 125.732 20.524C126.428 21.76 126.776 23.128 126.776 24.628C126.776 25.576 126.674 26.458 126.47 27.274C126.266 28.078 125.942 28.78 125.498 29.38C125.066 29.98 124.508 30.448 123.824 30.784C123.152 31.12 122.336 31.288 121.376 31.288ZM128.86 31V4.54H132.748V13.36V13.792H132.892L133.072 13.36L136.096 4.54H140.092L136.528 13.252L140.56 31H136.564L133.972 18.94H133.864L132.748 21.64V31H128.86ZM142.36 31V4.54H146.248V27.4H151.396V31H142.36ZM158.161 31.288C157.069 31.288 156.133 31.036 155.353 30.532C154.585 30.028 153.997 29.344 153.589 28.48C153.181 27.616 152.977 26.644 152.977 25.564V4.54H156.865V25.564C156.865 26.08 156.967 26.536 157.171 26.932C157.375 27.316 157.705 27.508 158.161 27.508C158.641 27.508 158.977 27.316 159.169 26.932C159.361 26.536 159.457 26.08 159.457 25.564V4.54H163.345V25.564C163.345 26.644 163.135 27.616 162.715 28.48C162.307 29.344 161.713 30.028 160.933 30.532C160.165 31.036 159.241 31.288 158.161 31.288ZM166.231 31V4.54H170.191C171.535 4.54 172.693 4.78 173.665 5.26C174.649 5.728 175.405 6.466 175.933 7.474C176.473 8.482 176.743 9.784 176.743 11.38C176.743 12.652 176.575 13.762 176.239 14.71C175.915 15.658 175.279 16.432 174.331 17.032C175.291 17.56 175.981 18.4 176.401 19.552C176.821 20.692 177.031 22.012 177.031 23.512C177.031 24.988 176.791 26.29 176.311 27.418C175.843 28.546 175.147 29.428 174.223 30.064C173.311 30.688 172.183 31 170.839 31H166.231ZM170.119 27.148C171.295 27.148 172.069 26.8 172.441 26.104C172.813 25.396 172.999 24.388 172.999 23.08C172.999 21.748 172.813 20.74 172.441 20.056C172.069 19.36 171.295 19.012 170.119 19.012V27.148ZM170.119 15.448C171.211 15.448 171.961 15.148 172.369 14.548C172.789 13.948 172.999 13.06 172.999 11.884C172.999 10.696 172.783 9.82 172.351 9.256C171.931 8.68 171.187 8.392 170.119 8.392V15.448ZM179.344 31V4.54H183.304C184.648 4.54 185.806 4.78 186.778 5.26C187.762 5.728 188.518 6.466 189.046 7.474C189.586 8.482 189.856 9.784 189.856 11.38C189.856 12.652 189.688 13.762 189.352 14.71C189.028 15.658 188.392 16.432 187.444 17.032C188.404 17.56 189.094 18.4 189.514 19.552C189.934 20.692 190.144 22.012 190.144 23.512C190.144 24.988 189.904 26.29 189.424 27.418C188.956 28.546 188.26 29.428 187.336 30.064C186.424 30.688 185.296 31 183.952 31H179.344ZM183.232 27.148C184.408 27.148 185.182 26.8 185.554 26.104C185.926 25.396 186.112 24.388 186.112 23.08C186.112 21.748 185.926 20.74 185.554 20.056C185.182 19.36 184.408 19.012 183.232 19.012V27.148ZM183.232 15.448C184.324 15.448 185.074 15.148 185.482 14.548C185.902 13.948 186.112 13.06 186.112 11.884C186.112 10.696 185.896 9.82 185.464 9.256C185.044 8.68 184.3 8.392 183.232 8.392V15.448ZM54.1529 67V40.54H63.4049V44.536H58.0409V51.484H61.6409V55.48H58.0409V67H54.1529ZM64.981 67V40.54H68.869C71.197 40.54 72.913 41.188 74.017 42.484C75.121 43.768 75.673 45.664 75.673 48.172C75.673 49.66 75.409 50.95 74.881 52.042C74.365 53.122 73.735 53.914 72.991 54.418L75.637 67H71.749L69.553 55.84H68.869V67H64.981ZM68.869 52.24C69.589 52.24 70.159 52.084 70.579 51.772C70.999 51.448 71.299 50.992 71.479 50.404C71.659 49.816 71.749 49.12 71.749 48.316C71.749 47.056 71.539 46.09 71.119 45.418C70.711 44.734 69.961 44.392 68.869 44.392V52.24ZM77.8482 67V40.54H86.7402V44.536H81.7362V51.664H85.3362V55.552H81.7362V63.004H86.7402V67H77.8482ZM89.6255 67V40.54H94.5575L96.6815 54.256L96.8615 55.66H96.9335L97.1135 54.256L99.2375 40.54H104.17V67H100.57V49.252H100.354L100.21 50.368L97.9055 67H95.8895L93.5855 50.368L93.4415 49.252H93.2255V67H89.6255ZM106.919 59.008V55.588H112.139V59.008H106.919ZM119.8 67.288C118.984 67.288 118.276 67.162 117.676 66.91C117.088 66.646 116.596 66.28 116.2 65.812C115.816 65.332 115.51 64.768 115.282 64.12C115.054 63.46 114.892 62.728 114.796 61.924C114.7 61.12 114.652 60.268 114.652 59.368H118.468C118.468 60.136 118.492 60.868 118.54 61.564C118.588 62.248 118.708 62.806 118.9 63.238C119.092 63.658 119.392 63.868 119.8 63.868C120.208 63.868 120.508 63.706 120.7 63.382C120.904 63.046 121.036 62.626 121.096 62.122C121.168 61.606 121.204 61.072 121.204 60.52C121.204 59.08 121.102 57.982 120.898 57.226C120.706 56.458 120.358 55.918 119.854 55.606C119.362 55.294 118.66 55.108 117.748 55.048V51.808C118.66 51.76 119.338 51.592 119.782 51.304C120.226 51.016 120.52 50.542 120.664 49.882C120.808 49.21 120.88 48.28 120.88 47.092C120.88 46.504 120.856 45.952 120.808 45.436C120.772 44.908 120.67 44.482 120.502 44.158C120.334 43.834 120.052 43.672 119.656 43.672C119.284 43.672 119.002 43.888 118.81 44.32C118.618 44.74 118.486 45.292 118.414 45.976C118.354 46.66 118.324 47.392 118.324 48.172H114.508C114.508 47.02 114.586 45.964 114.742 45.004C114.898 44.032 115.168 43.192 115.552 42.484C115.936 41.776 116.458 41.23 117.118 40.846C117.79 40.45 118.636 40.252 119.656 40.252C120.472 40.252 121.192 40.408 121.816 40.72C122.452 41.02 122.98 41.44 123.4 41.98C123.832 42.52 124.156 43.144 124.372 43.852C124.588 44.56 124.696 45.316 124.696 46.12C124.696 47.32 124.612 48.406 124.444 49.378C124.276 50.338 124.024 51.154 123.688 51.826C123.364 52.486 122.944 52.984 122.428 53.32C123.28 53.968 123.922 54.898 124.354 56.11C124.798 57.322 125.02 58.696 125.02 60.232C125.02 61.444 124.822 62.59 124.426 63.67C124.042 64.738 123.466 65.608 122.698 66.28C121.93 66.952 120.964 67.288 119.8 67.288ZM129.396 67V46.264H126.804V43.78C127.716 43.6 128.532 43.234 129.252 42.682C129.972 42.13 130.536 41.416 130.944 40.54H133.284V67H129.396Z" fill="#06006D"/>
</svg>
